<svg width="204" height="28" viewBox="0 0 204 28" fill="none" xmlns="http://www.w3.org/2000/svg">
<g clip-path="url(#clip0_1_168)">
<path d="M60.2535 26.4712C59.8737 26.4316 59.4791 26.2557 59.2879 26.0378C59.1837 25.9189 59.0943 25.7406 59.067 25.587L59.0447 25.4582H59.4865H59.9259L59.9432 25.535C59.9705 25.6588 60.1443 25.8173 60.3007 25.8644C60.4719 25.9139 60.678 25.9139 60.8517 25.8644C61.0205 25.8149 61.1943 25.644 61.2563 25.4681C61.3035 25.3344 61.3457 24.6656 61.306 24.6681C61.2935 24.6681 61.2514 24.7152 61.2092 24.7697C60.9163 25.1709 60.1716 25.2848 59.6479 25.005C59.2333 24.7845 58.9851 24.3189 58.9454 23.6873C58.8809 22.6025 59.5833 21.8347 60.5191 21.9659C60.8319 22.0081 61.0875 22.1591 61.224 22.3771C61.2514 22.4241 61.2861 22.4613 61.2985 22.4613C61.3109 22.4613 61.3209 22.3672 61.3209 22.2508V22.0402H61.7304H62.14V23.6576C62.14 25.4062 62.135 25.4632 62.0035 25.7406C61.8818 25.9981 61.6212 26.2334 61.3283 26.3474C61.0577 26.4539 60.601 26.5059 60.2535 26.4712ZM60.8567 24.4477C60.9858 24.3882 61.1595 24.205 61.224 24.0539C61.2861 23.9102 61.3258 23.6303 61.3084 23.4669C61.2439 22.9022 61.0304 22.6421 60.6109 22.6149C60.1071 22.5827 59.8216 22.9269 59.8266 23.5635C59.8315 24.1901 60.1269 24.5443 60.6085 24.5046C60.6904 24.4972 60.8021 24.4724 60.8567 24.4477Z" fill="white"/>
<path d="M23.2688 24.2198V22.0402H23.6907H24.1102L24.1177 22.2532L24.1251 22.4663L24.2095 22.3523C24.3982 22.1022 24.7035 21.9635 25.0808 21.9585C25.7187 21.9511 26.158 22.2458 26.4137 22.8526C26.5651 23.2142 26.6048 23.8136 26.4981 24.2074C26.3914 24.6111 26.1332 24.9901 25.8577 25.1536C25.3364 25.4582 24.6762 25.3913 24.2964 24.9975L24.1624 24.8563V25.6291V26.3994H23.7156H23.2688V24.2198ZM25.2446 24.6211C25.3563 24.5641 25.5052 24.4155 25.5598 24.3065C25.6691 24.0885 25.7137 23.5981 25.6492 23.2985C25.5474 22.8254 25.2595 22.5851 24.835 22.6149C24.6389 22.6297 24.5024 22.6941 24.3783 22.8303C24.1996 23.0285 24.1351 23.2514 24.1351 23.6601C24.1375 24.2 24.3038 24.5245 24.6389 24.6458C24.8102 24.7053 25.1006 24.6954 25.2446 24.6211Z" fill="white"/>
<path d="M48.4581 26.382L48.339 26.3721V26.0155V25.6588L48.6468 25.6638C48.9223 25.6687 48.962 25.6638 49.0265 25.6167C49.1382 25.5375 49.2127 25.369 49.1978 25.2328C49.1928 25.1709 48.9322 24.4477 48.6219 23.6229C48.3141 22.8006 48.0535 22.1071 48.0485 22.0824C48.0361 22.0427 48.0659 22.0402 48.5028 22.0452L48.9694 22.0526L49.3294 23.1424C49.5254 23.7418 49.6918 24.2372 49.6967 24.2421C49.6992 24.2471 49.7091 24.2471 49.7166 24.2396C49.729 24.2297 50.424 22.0724 50.424 22.0502C50.424 22.0452 50.6251 22.0402 50.8708 22.0402C51.1265 22.0402 51.3176 22.0502 51.3176 22.0625C51.3176 22.1146 49.9425 25.7777 49.8829 25.8892C49.7985 26.0452 49.6396 26.2087 49.5056 26.2755C49.2971 26.382 48.9347 26.4192 48.4581 26.382Z" fill="white"/>
<path d="M17.2172 25.3319C16.6487 25.2601 16.2243 24.8613 16.0406 24.2322C15.991 24.0613 15.9835 23.9796 15.9835 23.6254C15.9835 23.2663 15.991 23.1944 16.0406 23.031C16.259 22.335 16.7207 21.9635 17.3736 21.9585C17.7558 21.9585 18.0214 22.065 18.2622 22.3201L18.3788 22.4464V21.6241V20.8019H18.8132H19.2476V23.031V25.2601H18.8256H18.4037V25.0446V24.8316L18.3317 24.9282C18.1083 25.2378 17.6813 25.3913 17.2172 25.3319ZM17.8799 24.6508C18.2498 24.5418 18.4632 24.0291 18.3863 23.4347C18.3168 22.8873 18.0636 22.6099 17.6342 22.6099C17.4108 22.6099 17.2494 22.6694 17.1129 22.8056C16.7232 23.1944 16.7555 24.1777 17.1725 24.5319C17.3487 24.683 17.6218 24.7276 17.8799 24.6508Z" fill="white"/>
<path d="M21.0795 25.3319C20.2504 25.2378 19.7143 24.6582 19.6547 23.7864C19.6026 23.0582 19.9476 22.4142 20.5458 22.1294C20.8238 21.9957 20.9976 21.956 21.3078 21.9585C21.9234 21.9585 22.4 22.2533 22.6557 22.7858C22.7922 23.0681 22.8443 23.2737 22.8642 23.6006L22.8791 23.8483H21.705H20.5309L20.5433 24.0043C20.5781 24.413 20.8288 24.6582 21.2483 24.6854C21.5561 24.7053 21.8837 24.5616 21.9904 24.3635L22.0401 24.2694H22.4199C22.6259 24.2694 22.7972 24.2743 22.7972 24.2817C22.7972 24.3263 22.6805 24.569 22.5961 24.7028C22.3007 25.1709 21.7298 25.4087 21.0795 25.3319ZM21.9656 23.2118C21.9433 23.0879 21.839 22.8601 21.772 22.7882C21.6752 22.6842 21.5312 22.6272 21.3327 22.6149C20.9876 22.595 20.7568 22.7115 20.6203 22.9765C20.5756 23.0656 20.5384 23.1721 20.5384 23.2192V23.3034H21.2607H21.983L21.9656 23.2118Z" fill="white"/>
<path d="M28.253 25.3344C27.6052 25.2576 27.1311 24.8836 26.9325 24.2941C26.7265 23.6799 26.8382 22.9814 27.2155 22.5282C27.5282 22.1492 27.9626 21.956 28.4938 21.9585C28.953 21.961 29.308 22.1121 29.5909 22.4192C29.8789 22.7337 30.0452 23.1919 30.0452 23.665V23.8483H28.8761H27.7045L27.7193 24.0043C27.7442 24.2297 27.8658 24.4576 28.0172 24.5591C28.3771 24.7994 29.0126 24.683 29.1913 24.3412L29.2285 24.2693H29.5984C29.8987 24.2693 29.9707 24.2768 29.9707 24.304C29.9707 24.3214 29.9235 24.4303 29.8664 24.5443C29.7349 24.8118 29.4867 25.0669 29.2509 25.1808C28.9778 25.3145 28.5856 25.374 28.253 25.3344ZM29.1268 23.1399C29.0051 22.6991 28.6477 22.5133 28.181 22.6495C27.9477 22.7189 27.7119 23.0161 27.7119 23.2464V23.3034H28.4417H29.1739L29.1268 23.1399Z" fill="white"/>
<path d="M35.1709 25.3344C34.7613 25.2799 34.4486 25.0817 34.2153 24.7251C33.8156 24.1158 33.8181 23.1449 34.2202 22.5455C34.4858 22.1492 34.8706 21.9511 35.3571 21.9585C35.7145 21.9635 36.0198 22.0947 36.2258 22.335L36.3251 22.4489V21.6266V20.8019H36.7595H37.1939V23.031V25.2601H36.7843H36.3748V25.0446V24.8316L36.2407 24.9777C35.9826 25.2625 35.6003 25.3889 35.1709 25.3344ZM35.8262 24.6508C36.1613 24.5517 36.3499 24.1901 36.3499 23.6378C36.3499 23.1622 36.1985 22.8279 35.9156 22.6768C35.8336 22.6322 35.7741 22.6223 35.5805 22.6223C35.367 22.6223 35.3322 22.6297 35.2131 22.6941C35.1436 22.7337 35.0542 22.8031 35.0195 22.8502C34.7316 23.2266 34.7142 23.9498 34.9823 24.3659C35.161 24.6409 35.4861 24.7523 35.8262 24.6508Z" fill="white"/>
<path d="M39.0258 25.3344C38.3258 25.2502 37.8417 24.8316 37.663 24.1529C37.591 23.883 37.591 23.4396 37.663 23.1721C37.8194 22.5802 38.2488 22.1492 38.8321 21.9981C39.0878 21.9337 39.4874 21.9437 39.7406 22.0254C40.1874 22.169 40.52 22.496 40.6888 22.9542C40.7683 23.1746 40.8179 23.4446 40.8179 23.665V23.8483H39.6488H38.4772L38.4921 24.0043C38.5169 24.2297 38.6385 24.4576 38.7899 24.5591C39.1499 24.7994 39.7853 24.683 39.964 24.3412L40.0013 24.2693H40.3711C40.6715 24.2693 40.7434 24.2768 40.7434 24.304C40.7434 24.3214 40.6963 24.4303 40.6392 24.5443C40.5076 24.8118 40.2594 25.0669 40.0236 25.1808C39.7506 25.3145 39.3584 25.374 39.0258 25.3344ZM39.9193 23.1994C39.8374 22.8254 39.6339 22.6372 39.2889 22.6149C39.0208 22.5975 38.852 22.6545 38.6931 22.818C38.569 22.9467 38.4846 23.1176 38.4846 23.2464V23.3034H39.2144H39.9442L39.9193 23.1994Z" fill="white"/>
<path d="M54.4749 25.3319C53.6012 25.2303 53.0551 24.5839 53.0551 23.6502C53.0551 22.865 53.4349 22.278 54.0902 22.0526C54.3409 21.9659 54.6686 21.9313 54.9416 21.9659C55.6192 22.0477 56.0909 22.4192 56.2994 23.0433C56.3614 23.2241 56.3664 23.2762 56.3664 23.6378C56.3689 24.0885 56.3291 24.2669 56.1628 24.5666C55.8625 25.1115 55.1923 25.4136 54.4749 25.3319ZM55.093 24.6012C55.2568 24.5121 55.371 24.3585 55.443 24.1331C55.5224 23.8854 55.5224 23.4149 55.443 23.1672C55.3313 22.818 55.1154 22.6372 54.7803 22.6149C54.1994 22.5777 53.8867 23.0037 53.9313 23.774C53.9686 24.3957 54.2515 24.7077 54.7579 24.6805C54.9217 24.6731 54.9863 24.6582 55.093 24.6012Z" fill="white"/>
<path d="M63.3811 25.3344C62.7953 25.2625 62.4627 24.8861 62.4924 24.3214C62.5073 24.0514 62.5744 23.8904 62.7357 23.7393C62.9541 23.5362 63.18 23.4594 63.8155 23.3777C64.4087 23.3009 64.5527 23.2489 64.6222 23.0805C64.6594 22.9889 64.6371 22.8229 64.5725 22.7164C64.4906 22.5802 64.3963 22.548 64.0885 22.548C63.8527 22.548 63.8006 22.5554 63.7087 22.605C63.5896 22.6669 63.5176 22.7684 63.4779 22.9269L63.4506 23.031H63.0187H62.5868V22.9715C62.5868 22.8601 62.6836 22.595 62.7705 22.4762C62.9765 22.1839 63.319 22.0204 63.8353 21.9659C64.4956 21.8941 65.1285 22.0601 65.3569 22.3647C65.5058 22.5604 65.5009 22.5207 65.5182 23.8111C65.5307 24.8291 65.5381 25.0173 65.5729 25.1238C65.5952 25.1932 65.615 25.2502 65.615 25.2551C65.615 25.2576 65.4165 25.2576 65.1757 25.2551L64.7339 25.2477L64.7066 25.1164C64.6892 25.0421 64.6718 24.9802 64.6668 24.9752C64.6619 24.9678 64.6172 24.995 64.57 25.0347C64.292 25.2625 63.8105 25.3839 63.3811 25.3344ZM64.1977 24.7251C64.364 24.678 64.5005 24.5517 64.5725 24.3858C64.6172 24.2842 64.6321 24.195 64.642 23.9647L64.6544 23.67L64.5527 23.722C64.4981 23.7492 64.3466 23.7913 64.2201 23.8111C63.5846 23.9127 63.4506 23.9796 63.3786 24.2198C63.3389 24.3486 63.3711 24.5245 63.4456 24.6161C63.5623 24.7548 63.9247 24.8068 64.1977 24.7251Z" fill="white"/>
<path d="M75.452 25.3344C74.7768 25.2625 74.273 24.8341 74.0893 24.1703C74.057 24.0514 74.0446 23.9152 74.0446 23.6625C74.0421 23.3653 74.0496 23.2885 74.0992 23.13C74.3102 22.4588 74.7942 22.0502 75.4743 21.9635C75.6953 21.9362 76.0055 21.9635 76.1842 22.0254C76.8197 22.2508 77.192 22.8006 77.2466 23.6006L77.264 23.8483H76.08H74.896L74.9134 23.9796C74.9729 24.4402 75.2485 24.6904 75.6953 24.6904C75.9708 24.6904 76.2488 24.5567 76.363 24.3709L76.425 24.2718L76.8048 24.2693C77.0108 24.2693 77.1821 24.2768 77.1821 24.2867C77.1821 24.2966 77.1324 24.408 77.0704 24.5319C76.7825 25.1238 76.2016 25.4111 75.452 25.3344ZM76.3506 23.2241C76.2537 22.7833 76.0155 22.5901 75.596 22.6149C75.2559 22.6347 75.0424 22.7957 74.9481 23.1028C74.9208 23.1895 74.8985 23.2687 74.8985 23.2811C74.8985 23.2935 75.2162 23.3034 75.6332 23.3034H76.3679L76.3506 23.2241Z" fill="white"/>
<path d="M78.7757 25.3319C78.3115 25.2724 77.9416 24.9975 77.7282 24.5567C77.5718 24.2297 77.5445 24.091 77.542 23.6378C77.542 23.182 77.5718 23.0384 77.7282 22.7214C77.8994 22.3721 78.1501 22.1468 78.5001 22.0229C78.6515 21.9709 78.7285 21.9585 78.932 21.9585C79.3168 21.9585 79.5799 22.0675 79.8207 22.3201L79.9373 22.4464V21.6242V20.8019H80.3717H80.8061V23.031V25.2601H80.3841H79.9621V25.0446V24.8316L79.8902 24.9282C79.6668 25.2378 79.2398 25.3938 78.7757 25.3319ZM79.4384 24.6508C79.843 24.5319 80.0565 23.9276 79.9224 23.2861C79.8256 22.813 79.5675 22.5926 79.143 22.6149C78.793 22.6347 78.5771 22.8105 78.4679 23.1622C78.3934 23.3926 78.3884 23.8582 78.453 24.0712C78.5448 24.3684 78.7484 24.5963 78.9792 24.6632C79.1008 24.6978 79.2969 24.6929 79.4384 24.6508Z" fill="white"/>
<path d="M97.901 25.3344C97.3425 25.2675 96.8982 24.9604 96.6698 24.4873C96.5432 24.2198 96.4936 23.9895 96.4936 23.6551C96.4936 23.1375 96.6425 22.7585 96.9751 22.4217C97.3003 22.0972 97.6478 21.956 98.1318 21.9585C98.596 21.9585 98.8964 22.0774 99.1992 22.3845C99.5144 22.7015 99.6634 23.0607 99.6882 23.5709L99.7031 23.8483H98.529H97.3549L97.3723 23.9845C97.407 24.2916 97.556 24.522 97.7794 24.6211C97.9357 24.6904 98.2336 24.7077 98.4098 24.6557C98.5737 24.6087 98.74 24.4898 98.8244 24.361L98.8839 24.2694H99.2637H99.646L99.6187 24.3362C99.4871 24.6854 99.2166 25.0173 98.9534 25.1585C98.6804 25.3046 98.2535 25.374 97.901 25.3344ZM98.812 23.2365C98.7077 22.8031 98.4868 22.6099 98.0996 22.6099C97.7248 22.6099 97.4294 22.8526 97.3723 23.2019L97.3549 23.3034H98.0921H98.8269L98.812 23.2365Z" fill="white"/>
<path d="M104.275 25.3344C103.871 25.2923 103.588 25.1585 103.322 24.891C103.114 24.683 103.009 24.5071 102.918 24.2198C102.868 24.0588 102.86 23.9845 102.86 23.6502C102.863 23.296 102.868 23.2514 102.93 23.0681C103.121 22.5257 103.528 22.1418 104.064 22.0006C104.283 21.9437 104.695 21.9437 104.908 22.0006C105.447 22.1467 105.824 22.543 105.99 23.1424C106.035 23.296 106.077 23.7195 106.057 23.7938L106.045 23.8483H104.878H103.709L103.727 23.9697C103.771 24.304 103.928 24.5443 104.159 24.6334C104.34 24.7028 104.707 24.6954 104.876 24.6186C104.998 24.5641 105.231 24.3511 105.231 24.2941C105.231 24.2793 105.365 24.2693 105.616 24.2693H106L105.948 24.4006C105.688 25.0718 105.067 25.4161 104.275 25.3344ZM105.181 23.2811C105.181 23.2687 105.161 23.1919 105.137 23.1127C105.027 22.7659 104.819 22.6099 104.461 22.6099C104.079 22.6099 103.794 22.8452 103.727 23.2118L103.712 23.3034H104.447C104.871 23.3034 105.181 23.2935 105.181 23.2811Z" fill="white"/>
<path d="M45.8568 25.2848C45.6309 25.265 45.5564 25.2452 45.4075 25.1709C45.2809 25.109 45.1816 25.005 45.1171 24.8663C45.0798 24.787 45.0749 24.6508 45.0674 23.6947L45.06 22.6099H44.7894H44.5164V22.3251V22.0402H44.7894H45.0625V21.5573V21.0743H45.4968H45.9312V21.5573V22.0402H46.2663H46.6014V22.3251V22.6099H46.2638H45.9287L45.9362 23.5214C45.9461 24.6607 45.9238 24.6062 46.3855 24.6012L46.6014 24.5988V24.9282C46.6014 25.2526 46.5989 25.2601 46.5468 25.27C46.4376 25.2923 46.0404 25.2997 45.8568 25.2848Z" fill="white"/>
<path d="M111.076 25.2824C110.826 25.2601 110.625 25.1833 110.508 25.0718C110.307 24.8786 110.295 24.787 110.295 23.5833V22.6099H110.034H109.773V22.3251V22.0402H110.034H110.295V21.5573V21.0743H110.741H111.188V21.5573V22.0402H111.511H111.834V22.3251V22.6099H111.511H111.188V23.4991C111.188 24.0068 111.198 24.418 111.213 24.4526C111.255 24.569 111.35 24.6037 111.603 24.6037L111.834 24.6012V24.9306C111.834 25.2526 111.831 25.2601 111.779 25.27C111.66 25.2947 111.268 25.3022 111.076 25.2824Z" fill="white"/>
<path d="M11.0315 23.6502V22.0402H11.4783H11.9251V23.6502V25.2601H11.4783H11.0315V23.6502Z" fill="white"/>
<path d="M12.496 23.6502V22.0402H12.918H13.34V22.2632C13.34 22.387 13.3474 22.4861 13.3598 22.4861C13.3698 22.4836 13.407 22.439 13.4442 22.387C13.546 22.2409 13.7893 22.0724 13.9953 22.0105C14.1293 21.9659 14.2261 21.9536 14.4098 21.956C14.9683 21.9635 15.3009 22.1789 15.4573 22.6347C15.5094 22.7907 15.5119 22.8353 15.5193 24.0291L15.5268 25.2601H15.0924H14.6555V24.2594C14.6555 23.2291 14.6431 23.0755 14.5538 22.8898C14.457 22.6892 14.1814 22.595 13.8836 22.657C13.6329 22.7115 13.479 22.8799 13.4169 23.1746C13.3996 23.2588 13.3896 23.6625 13.3896 24.2817V25.2601H12.9428H12.496V23.6502Z" fill="white"/>
<path d="M30.4671 23.6502V22.0402H30.8767H31.2863V22.2632C31.2863 22.387 31.2962 22.4861 31.3086 22.4861C31.3185 22.4861 31.3607 22.4415 31.398 22.387C31.537 22.1864 31.8448 22.013 32.1401 21.9659C32.5274 21.904 33.0039 22.0353 33.1976 22.2557C33.2968 22.3672 33.3887 22.5505 33.4383 22.7387C33.4706 22.87 33.4805 23.0854 33.488 24.0786L33.5004 25.2601H33.0511H32.6043L32.5969 24.1653L32.5894 23.0681L32.5249 22.9294C32.4876 22.8526 32.4256 22.7684 32.3859 22.7387C32.2196 22.6198 31.887 22.605 31.6859 22.709C31.5593 22.7734 31.4451 22.9146 31.393 23.0681C31.3558 23.1746 31.3483 23.3406 31.3409 24.2272L31.3334 25.2601H30.899H30.4671V23.6502Z" fill="white"/>
<path d="M41.2399 23.6502V22.0402H41.6494H42.059V22.2632C42.059 22.387 42.0689 22.4861 42.0813 22.4861C42.0913 22.4861 42.1335 22.4415 42.1707 22.387C42.3097 22.1864 42.6175 22.013 42.9129 21.9659C43.3001 21.904 43.7767 22.0353 43.9703 22.2557C44.0696 22.3672 44.1614 22.5505 44.2111 22.7387C44.2433 22.87 44.2533 23.0854 44.2607 24.0786L44.2731 25.2601H43.8238H43.3746V24.2124C43.3746 23.0879 43.3671 23.0136 43.2455 22.8328C43.1537 22.6966 43.0246 22.6471 42.7788 22.6471C42.5331 22.6495 42.409 22.6991 42.2874 22.8452C42.131 23.0384 42.1235 23.0854 42.1136 24.2272L42.1062 25.2601H41.6718H41.2399V23.6502Z" fill="white"/>
<path d="M46.9241 23.031V20.8019H47.3709H47.8177V23.031V25.2601H47.3709H46.9241V23.031Z" fill="white"/>
<path d="M56.7288 23.6502V22.0402H57.1508H57.5727V22.3449V22.6471L57.6447 22.5232C57.8507 22.1666 58.3695 21.8916 58.7046 21.961L58.8014 21.9808L58.8089 22.3845L58.8163 22.7858L58.6202 22.7709C58.2901 22.7412 58.0394 22.8155 57.8681 22.9988C57.6348 23.2415 57.6 23.4347 57.5976 24.4749V25.2601H57.1632H56.7288V23.6502Z" fill="white"/>
<path d="M66.0867 23.6502V22.0402H66.5086H66.9306V22.2632C66.9306 22.387 66.9405 22.4861 66.9505 22.4861C66.9629 22.4861 66.9877 22.4563 67.0076 22.4217C67.0249 22.3845 67.0944 22.3077 67.1615 22.2483C67.4146 22.0204 67.7696 21.9164 68.1419 21.961C68.6359 22.0204 68.9089 22.2235 69.0479 22.6347C69.1001 22.7907 69.1025 22.8353 69.11 24.0291L69.1174 25.2601H68.683H68.2487L68.2412 24.1777C68.2338 23.2217 68.2263 23.0805 68.1891 22.9814C68.0824 22.704 67.8192 22.5851 67.4742 22.657C67.2235 22.7115 67.0696 22.8799 67.0076 23.1746C66.9902 23.2588 66.9803 23.6625 66.9803 24.2817V25.2601H66.5335H66.0867V23.6502Z" fill="white"/>
<path d="M69.5866 23.6502V22.0402H70.0209H70.4553V23.6502V25.2601H70.0209H69.5866V23.6502Z" fill="white"/>
<path d="M70.8525 24.9306V24.6037L71.6964 23.6576C72.1606 23.135 72.5404 22.704 72.5404 22.6966C72.5404 22.6892 72.1879 22.6842 71.7585 22.6842H70.9766V22.3622V22.0402H72.3418H73.707V22.3697L73.7045 22.6966L72.8655 23.6378L72.0241 24.5789L72.9276 24.5864L73.8311 24.5913V24.9257V25.2601H72.3418H70.8525V24.9306Z" fill="white"/>
<path d="M84.0578 23.4396V21.6192H83.3876H82.7174V21.2105V20.8019H84.5542H86.391V21.2105V21.6192H85.7209H85.0507V23.4396V25.2601H84.5542H84.0578V23.4396Z" fill="white"/>
<path d="M86.7882 23.031V20.8019H88.4513H90.1143V21.2105V21.6192H88.9353H87.7562V22.1022V22.5851H88.836H89.9158V22.9567V23.3282H88.836H87.7562V23.8855V24.4427H88.9601H90.164V24.8514V25.2601H88.4761H86.7882V23.031Z" fill="white"/>
<path d="M90.586 23.031V20.7994L91.7476 20.8068C92.8522 20.8167 92.9167 20.8192 93.1054 20.8712C93.86 21.0793 94.3415 21.6266 94.4954 22.4489C94.5376 22.6718 94.55 23.2192 94.5202 23.4396C94.4383 24.0118 94.2174 24.47 93.8724 24.7845C93.6813 24.9628 93.4554 25.0842 93.155 25.1759L92.9316 25.2452L91.76 25.2551L90.586 25.2625V23.031ZM92.7604 24.408C93.1277 24.3115 93.3735 24.0613 93.5075 23.6526C93.5671 23.4694 93.5795 22.8378 93.5274 22.5827C93.4479 22.1814 93.2419 21.8817 92.9589 21.7529C92.7331 21.6489 92.527 21.6192 92.0331 21.6192H91.5788V23.031V24.4427H92.1075C92.4724 24.4427 92.6735 24.4328 92.7604 24.408Z" fill="white"/>
<path d="M100.756 25.156C100.587 24.6656 99.6956 22.0625 99.6956 22.0526C99.6956 22.0452 99.8992 22.0402 100.15 22.0402H100.604L100.87 22.9022C101.016 23.3752 101.17 23.8706 101.212 24.0068C101.254 24.1406 101.297 24.2396 101.307 24.2297C101.319 24.2173 101.475 23.7195 101.659 23.1251L101.992 22.0402H102.421C102.654 22.0402 102.848 22.0477 102.848 22.0601C102.848 22.07 102.605 22.7932 102.309 23.67L101.768 25.2601H101.282H100.793L100.756 25.156Z" fill="white"/>
<path d="M106.472 23.6502V22.0402H106.894H107.316V22.2656V22.4935L107.467 22.3276C107.738 22.0328 108.113 21.9065 108.55 21.9659C108.666 21.9808 108.82 22.0155 108.892 22.0427C109.076 22.1121 109.257 22.2805 109.351 22.4712C109.485 22.7412 109.498 22.8947 109.5 24.1406V25.2601H109.068H108.634L108.627 24.2025C108.614 23.0062 108.609 22.9517 108.435 22.7808C108.321 22.6669 108.177 22.6248 107.964 22.6446C107.745 22.6644 107.596 22.7412 107.497 22.8873C107.368 23.083 107.361 23.1548 107.348 24.252L107.336 25.2601H106.904H106.472V23.6502Z" fill="white"/>
<path d="M6.34018 24.356V24.0217H7.91637H9.49257V24.356V24.6904H7.91637H6.34018V24.356Z" fill="white"/>
<path d="M6.34018 23.0186V22.6842H7.91637H9.49257V23.0186V23.3529H7.91637H6.34018V23.0186Z" fill="white"/>
<path d="M11.0315 21.161V20.8019H11.4783H11.9251V21.161V21.5201H11.4783H11.0315V21.161Z" fill="white"/>
<path d="M69.5866 21.161V20.8019H70.0209H70.4553V21.161V21.5201H70.0209H69.5866V21.161Z" fill="white"/>
<path d="M89.32 17.4334C87.5651 17.2972 86.2223 16.3759 85.485 14.8006C84.9563 13.6737 84.7801 12.1282 85.0035 10.5777C85.3485 8.17771 86.7932 6.48359 88.8484 6.06749C89.2356 5.98824 89.531 5.96347 90.015 5.96347C91.3132 5.96347 92.3508 6.33498 93.304 7.13498C94.1951 7.88545 94.7287 8.94303 94.9174 10.3375C94.972 10.7362 94.9919 11.7046 94.9571 12.1579C94.8529 13.4755 94.5029 14.5628 93.8898 15.4793C93.5249 16.0217 93.1997 16.356 92.7331 16.6681C92.1522 17.057 91.3728 17.322 90.5611 17.4062C90.2037 17.4433 89.6129 17.4557 89.32 17.4334ZM90.72 15.8235C91.554 15.6477 92.115 15.1944 92.4824 14.4093C92.9242 13.4582 93.1203 12.4279 93.0855 11.2316C93.0458 9.8743 92.7281 8.9356 92.0902 8.30402C91.6483 7.86811 91.1271 7.63282 90.4097 7.54861C90.1069 7.51393 89.5211 7.53375 89.2555 7.58576C88.4041 7.75666 87.8133 8.21981 87.3864 9.04706C87.0538 9.6935 86.8577 10.4266 86.7907 11.2638C86.6591 12.9183 87.0736 14.392 87.8878 15.1721C88.2974 15.5635 88.7764 15.7814 89.4317 15.8706C89.7197 15.9102 90.4345 15.883 90.72 15.8235Z" fill="white"/>
<path d="M110.913 17.3715C109.515 17.1536 108.468 16.1851 108.207 14.87C108.185 14.756 108.172 14.5207 108.172 14.1889C108.172 13.748 108.18 13.6464 108.229 13.4211C108.443 12.4724 108.959 11.8409 109.92 11.3604C110.228 11.2043 110.672 11.0508 111.039 10.974C111.168 10.9443 112.032 10.8279 112.956 10.7115C114.159 10.5579 114.676 10.4836 114.77 10.4489C115.103 10.3251 115.296 10.1046 115.373 9.76285C115.435 9.4805 115.413 8.91579 115.326 8.67059C115.073 7.94489 114.341 7.57585 113.075 7.53375C111.767 7.49164 110.947 7.86811 110.615 8.66564C110.535 8.85387 110.434 9.23034 110.406 9.44087L110.391 9.55728H109.545H108.699L108.716 9.32941C108.805 8.14056 109.21 7.31579 109.952 6.82539C110.513 6.45387 111.183 6.20124 111.945 6.07245C112.335 6.00805 113.601 6.00805 114.018 6.07245C114.673 6.17399 115.155 6.31269 115.624 6.5356C116.45 6.92694 116.915 7.47678 117.111 8.29659C117.153 8.46749 117.155 8.73746 117.168 11.9598L117.183 15.4396L117.25 15.5759C117.329 15.7393 117.414 15.7938 117.625 15.8235C117.764 15.8433 118.233 15.8186 118.344 15.7839C118.384 15.7715 118.387 15.8136 118.387 16.4378V17.104L118.195 17.156C117.791 17.2625 117.711 17.2724 117.22 17.2724C116.761 17.27 116.726 17.2675 116.532 17.2031C115.966 17.0149 115.649 16.5963 115.495 15.8359C115.472 15.7269 115.453 15.6378 115.45 15.6328C115.445 15.6303 115.388 15.6947 115.321 15.7789C115.09 16.0563 114.658 16.413 114.241 16.6656C113.618 17.0446 112.958 17.2799 112.261 17.3715C111.915 17.4161 111.208 17.4161 110.913 17.3715ZM112.318 15.8706C112.682 15.8409 113.003 15.7715 113.333 15.6576C114.408 15.2861 115.053 14.6594 115.289 13.7628C115.338 13.5721 115.343 13.4854 115.351 12.5591L115.361 11.561L115.189 11.6477C114.688 11.9053 114.204 12.0192 112.928 12.1827C111.772 12.3313 111.382 12.4204 110.977 12.6211C110.493 12.8613 110.183 13.2551 110.081 13.7554C110.024 14.0328 110.044 14.5108 110.121 14.7337C110.349 15.405 111.064 15.8582 111.945 15.8954C111.987 15.8954 112.154 15.8854 112.318 15.8706Z" fill="white"/>
<path d="M76.3257 17.213C75.9559 17.1759 75.6332 17.0842 75.38 16.9455C74.9729 16.7226 74.6478 16.1257 74.5534 15.4198C74.5361 15.2885 74.5261 13.9907 74.5261 11.4743V7.72446H73.7939H73.0616V6.99381V6.26316H73.7939H74.5261V4.75232V3.24149H75.4321H76.3381V4.75232V6.26316H77.2069H78.0757V6.99381V7.72446H77.2069H76.3381V11.296C76.3381 13.7703 76.3456 14.9146 76.3655 15.0211C76.4002 15.2142 76.5169 15.4149 76.6484 15.5065C76.8296 15.6303 77.0108 15.6601 77.5743 15.6576L78.0757 15.6551V16.356V17.057L77.8597 17.109C77.7381 17.1362 77.5519 17.1684 77.4427 17.1833C77.1498 17.218 76.5541 17.2353 76.3257 17.213Z" fill="white"/>
<path d="M82.0844 17.213C81.7146 17.1759 81.3919 17.0842 81.1387 16.9455C80.7316 16.7226 80.4065 16.1257 80.3121 15.4198C80.2948 15.2885 80.2848 13.9907 80.2848 11.4743V7.72446H79.5526H78.8203V6.99381V6.26316H79.5526H80.2848V4.75232V3.24149H81.1908H82.0968V4.75232V6.26316H82.9656H83.8344V6.99381V7.72446H82.9656H82.0968V11.296C82.0968 13.7703 82.1043 14.9146 82.1241 15.0211C82.1589 15.2142 82.2756 15.4149 82.4071 15.5065C82.5883 15.6303 82.7695 15.6601 83.333 15.6576L83.8344 15.6551V16.356V17.057L83.6184 17.109C83.4968 17.1362 83.3106 17.1684 83.2014 17.1833C82.9085 17.218 82.3128 17.2353 82.0844 17.213Z" fill="white"/>
<path d="M58.0195 9.68855C56.5401 5.63158 55.3239 2.29783 55.3189 2.28297C55.3115 2.2582 55.5398 2.25077 56.4086 2.25077H57.5107L59.6305 8.52446C60.7971 11.9721 61.7577 14.813 61.7701 14.8328C61.7875 14.865 61.79 14.865 61.8024 14.8328C61.8123 14.813 62.7605 11.9771 63.9098 8.52941L66.0048 2.26316L67.1242 2.25573L68.2462 2.25077L68.199 2.36718C68.1742 2.43406 66.9554 5.76533 65.4909 9.77523L62.8251 17.0619H61.7676H60.7102L58.0195 9.68855Z" fill="white"/>
<path d="M69.5617 11.6873V6.31269H70.4802H71.3986V11.6873V17.0619H70.4802H69.5617V11.6873Z" fill="white"/>
<path d="M97.2134 11.6625V6.26316H98.0698H98.9261V7.1969V8.13313L99.0378 7.93746C99.0974 7.83096 99.2116 7.65758 99.2885 7.55604C99.4697 7.31827 99.9513 6.82043 100.187 6.6322C100.765 6.16904 101.406 5.97585 102.16 6.0452L102.476 6.07245V7.02353V7.97461L102.347 7.9548C102.146 7.92508 101.493 7.93498 101.284 7.96966C100.902 8.03653 100.535 8.18019 100.229 8.3808C99.8148 8.65573 99.3804 9.25015 99.1917 9.80495C99.0304 10.278 99.0403 10.0254 99.0329 13.7133L99.0254 17.0619H98.1194H97.2134V11.6625Z" fill="white"/>
<path d="M104.064 11.6873V6.31269H104.983H105.901V11.6873V17.0619H104.983H104.064V11.6873Z" fill="white"/>
<path d="M69.5617 3.27864V2.25077H70.4802H71.3986V3.27864V4.3065H70.4802H69.5617V3.27864Z" fill="white"/>
<path d="M104.064 3.27864V2.25077H104.983H105.901V3.27864V4.3065H104.983H104.064V3.27864Z" fill="white"/>
<path d="M2.13036 24.9579C2.24455 24.7895 2.50766 24.4081 2.7112 24.1084L3.08353 23.5659L2.89488 23.291C2.79063 23.1424 2.55234 22.7981 2.36369 22.5307L2.02363 22.0402H2.52503H3.02644L3.297 22.4514C3.44593 22.6768 3.57749 22.865 3.58493 22.87C3.59486 22.8774 3.7289 22.6916 3.8828 22.4613L4.16328 22.0402H4.64731C5.02957 22.0402 5.12389 22.0477 5.10652 22.0724C5.09163 22.0873 4.85582 22.4241 4.58029 22.8155C4.28243 23.239 4.08385 23.5437 4.0913 23.5659C4.09875 23.5858 4.34448 23.9449 4.6349 24.3635C4.9278 24.782 5.18595 25.1536 5.21077 25.1932L5.25297 25.2601H4.75653H4.26009L3.92996 24.7523C3.74627 24.4724 3.59238 24.2446 3.58493 24.2446C3.57749 24.2446 3.42111 24.4749 3.23742 24.7523L2.90233 25.2601H2.41085H1.92186L2.13036 24.9579Z" fill="white"/>
<path d="M5.76927 11.5511V6.01548H3.67181H1.57436V4.10836V2.20124H8.05289H14.5314V4.10836V6.01548H12.434H10.3365V11.5511V17.0867H8.05289H5.76927V11.5511Z" fill="white"/>
<path d="M15.2513 9.64396V2.20124H21.5312H27.8112V4.10836V6.01548H23.8148H19.8185V6.94427V7.87307H23.8148H27.8112V9.64396V11.4149H23.8148H19.8185V12.3437V13.2724H23.8148H27.8112V15.1796V17.0867H21.5312H15.2513V9.64396Z" fill="white"/>
<path d="M28.5807 9.64396V2.19876L32.6837 2.20867C36.9407 2.21858 36.9109 2.21858 37.5538 2.32755C39.5842 2.66935 41.0661 3.74427 41.9572 5.52012C42.543 6.68916 42.8285 8.03653 42.8285 9.63158C42.8285 11.9944 42.1881 13.8347 40.9172 15.1077C39.8697 16.1604 38.435 16.787 36.5858 17C35.9801 17.0694 35.1312 17.0842 31.815 17.0867H28.5807V9.64396ZM35.5581 13.2378C36.9482 13.052 37.807 12.2421 38.1197 10.818C38.219 10.3771 38.2463 10.1046 38.2439 9.58204C38.2439 8.82415 38.1297 8.29164 37.8492 7.72941C37.663 7.35294 37.5166 7.15728 37.2237 6.87988C36.7794 6.4613 36.2705 6.22353 35.506 6.07492C35.3372 6.04272 35.0815 6.03282 34.2351 6.02291L33.1727 6.01053V9.64149V13.2724H34.2351C35.0021 13.2724 35.367 13.2625 35.5581 13.2378Z" fill="white"/>
<path d="M43.6054 10.9269C45.5936 8.01919 46.5021 6.66935 46.4897 6.63963C46.4823 6.62229 45.8046 5.62415 44.9805 4.42291C44.1565 3.22167 43.4738 2.22353 43.4639 2.20867C43.449 2.1839 43.7866 2.17647 45.1171 2.17647H46.7876L47.4056 3.27864C47.7457 3.88545 48.0312 4.3808 48.0411 4.3808C48.0485 4.3808 48.3414 3.88793 48.6914 3.28607L49.3244 2.18885L50.9924 2.18142C51.9084 2.17895 52.658 2.18142 52.658 2.19133C52.658 2.19876 51.9704 3.20681 51.1314 4.43282L49.6024 6.65944L51.1761 8.97028C52.0399 10.2384 52.7573 11.2935 52.7672 11.3108C52.7821 11.3331 52.4445 11.3406 51.1141 11.3406L49.4435 11.3381L48.7485 10.1889C48.3663 9.5548 48.0485 9.03715 48.0411 9.03715C48.0336 9.03715 47.7209 9.5548 47.3486 10.1889L46.6684 11.3406H44.9954H43.3224L43.6054 10.9269Z" fill="white"/>
</g>
<defs>
<clipPath id="clip0_1_168">
<rect width="204" height="28" fill="white"/>
</clipPath>
</defs>
</svg>
