<svg class="img-fluid" id="outputsvg" xmlns="http://www.w3.org/2000/svg" style="transform: matrix(0.39, 0, 0, 0.39, 7.099, 54.1076); transform-origin: 50% 50%; cursor: move; transition: transform 200ms ease-in-out 0s;" width="4915" height="1292" viewBox="0 0 49150 12920"><g id="l3Jr1I2CmEqOExXXJmmPz0y" fill="rgb(0,0,0)" style="transform: none;"><g style="transform: none;"><path id="p1JugU7Ou" d="M25080 11899 c-153 -16 -312 -87 -389 -175 -42 -48 -78 -120 -89 -182 l-9 -52 178 0 177 0 7 31 c11 50 81 114 144 133 69 20 152 20 222 0 68 -20 138 -89 163 -160 19 -54 36 -324 20 -323 -5 0 -22 19 -39 41 -118 162 -418 208 -629 95 -167 -89 -267 -277 -283 -532 -26 -438 257 -748 634 -695 126 17 229 78 284 166 11 19 25 34 30 34 5 0 9 -38 9 -85 l0 -85 165 0 165 0 0 653 c0 706 -2 729 -55 841 -49 104 -154 199 -272 245 -109 43 -293 64 -433 50z m243 -817 c52 -24 122 -98 148 -159 25 -58 41 -171 34 -237 -26 -228 -112 -333 -281 -344 -203 -13 -318 126 -316 383 2 253 121 396 315 380 33 -3 78 -13 100 -23z"></path><path id="pZcFaZoaR" d="M10180 10990 l0 -880 170 0 169 0 3 86 3 86 34 -46 c76 -101 199 -157 351 -159 257 -3 434 116 537 361 61 146 77 388 34 547 -43 163 -147 316 -258 382 -210 123 -476 96 -629 -63 l-54 -57 0 312 0 311 -180 0 -180 0 0 -880z m796 162 c45 -23 105 -83 127 -127 44 -88 62 -286 36 -407 -41 -191 -157 -288 -328 -276 -79 6 -134 32 -184 87 -72 80 -98 170 -98 335 1 218 68 349 203 398 69 24 186 20 244 -10z"></path><path id="p1ETnPx02T" d="M20328 11863 l-48 -4 0 -144 0 -144 124 2 c111 2 127 0 153 -19 45 -32 75 -100 69 -155 -2 -25 -107 -317 -232 -650 -124 -332 -229 -612 -231 -622 -5 -16 7 -17 183 -15 l188 3 145 440 c79 242 146 442 148 444 1 2 5 2 8 -1 5 -4 285 -875 285 -884 0 -2 81 -4 180 -4 103 0 180 4 180 9 0 21 -554 1500 -578 1545 -34 63 -98 129 -152 156 -84 43 -230 58 -422 43z"></path><path id="pGg4nFDUb" d="M7742 11439 c-229 -29 -400 -190 -474 -444 -20 -69 -23 -102 -23 -245 0 -145 3 -174 23 -240 88 -281 274 -431 537 -433 154 0 261 43 358 146 l47 51 0 -332 0 -332 175 0 175 0 0 900 0 900 -170 0 -170 0 0 -87 0 -86 -29 39 c-90 125 -262 187 -449 163z m267 -275 c149 -44 235 -251 204 -491 -28 -221 -130 -333 -303 -333 -90 0 -155 24 -210 79 -157 157 -144 554 24 697 71 61 181 79 285 48z"></path><path id="p1GjD6ur5i" d="M9298 11439 c-334 -38 -550 -272 -574 -624 -21 -294 118 -554 359 -669 112 -54 182 -70 307 -69 248 0 440 119 543 334 55 114 76 197 84 329 l6 100 -473 0 -473 0 5 63 c14 165 115 264 284 275 124 8 256 -50 299 -130 l20 -38 153 0 c83 0 152 2 152 5 0 18 -47 116 -81 170 -119 189 -349 285 -611 254z m357 -856 c-9 -50 -51 -142 -78 -171 -39 -42 -97 -65 -177 -70 -139 -8 -232 39 -287 146 -18 36 -33 79 -33 98 l0 34 291 0 291 0 -7 -37z"></path><path id="pziwbvdFq" d="M12188 11440 c-261 -31 -452 -182 -532 -420 -83 -248 -38 -530 114 -713 126 -153 301 -231 515 -230 185 1 328 62 442 186 116 127 183 312 183 503 l0 74 -471 0 -472 0 6 63 c10 91 59 183 120 224 145 97 401 50 473 -88 l15 -29 149 0 c121 0 150 3 150 14 0 7 -19 51 -42 97 -53 108 -153 211 -248 257 -110 54 -268 78 -402 62z m352 -886 c-49 -178 -193 -253 -381 -198 -94 28 -189 148 -189 241 l0 23 294 0 295 0 -19 -66z"></path><path id="pb4PbP2rj" d="M14975 11440 c-165 -22 -291 -102 -385 -246 -161 -246 -160 -638 2 -880 107 -160 262 -240 458 -237 144 2 267 55 350 152 l40 46 0 -332 0 -333 175 0 175 0 0 900 0 900 -165 0 -165 0 0 -87 0 -86 -54 59 c-104 115 -258 166 -431 144z m264 -276 c135 -40 211 -186 211 -409 0 -192 -61 -327 -175 -388 -33 -18 -57 -22 -135 -22 -86 0 -100 3 -148 29 -28 16 -64 44 -78 63 -116 152 -123 444 -15 612 72 111 203 156 340 115z"></path><path id="p1wY4v0VS" d="M16528 11440 c-282 -34 -477 -203 -549 -477 -29 -109 -29 -288 0 -396 63 -239 236 -413 471 -474 103 -26 264 -22 366 11 180 58 314 190 382 375 32 89 52 198 52 287 l0 74 -471 0 -472 0 6 63 c10 91 59 183 120 224 145 97 401 50 473 -88 l15 -29 149 0 c121 0 150 3 150 14 0 7 -19 51 -42 97 -53 108 -153 211 -248 257 -110 54 -268 78 -402 62z m360 -862 c-33 -151 -115 -227 -254 -236 -108 -7 -176 16 -240 82 -50 52 -84 121 -84 173 l0 23 294 0 294 0 -10 -42z"></path><path id="pJc3I2261" d="M22752 11439 c-352 -41 -572 -302 -572 -679 0 -317 153 -554 417 -645 101 -35 233 -49 343 -35 273 33 463 183 547 435 25 73 27 94 27 240 1 182 -15 254 -82 375 -121 220 -391 342 -680 309z m249 -295 c66 -36 112 -98 141 -189 32 -100 32 -290 0 -390 -45 -141 -132 -214 -267 -223 -234 -15 -360 157 -342 468 15 251 129 377 333 366 66 -3 92 -9 135 -32z"></path><path id="pAeWpIPS8" d="M26340 11440 c-236 -29 -370 -181 -358 -409 6 -109 33 -174 98 -235 88 -82 179 -113 435 -146 239 -31 297 -52 325 -120 15 -37 6 -104 -20 -147 -33 -55 -71 -68 -195 -68 -95 0 -116 3 -153 23 -48 25 -77 66 -93 130 l-11 42 -174 0 -174 0 0 -24 c0 -45 39 -152 74 -200 83 -118 221 -184 429 -206 266 -29 521 38 613 161 60 79 58 63 65 584 5 411 8 487 22 530 9 28 17 51 17 53 0 1 -80 1 -177 0 l-178 -3 -11 -53 c-7 -30 -14 -55 -16 -57 -2 -3 -20 8 -39 24 -112 92 -306 141 -479 121z m329 -246 c67 -19 122 -70 151 -137 18 -41 24 -77 28 -170 l5 -119 -41 21 c-22 11 -83 28 -134 36 -256 41 -310 68 -339 165 -16 52 -3 123 27 160 47 56 193 77 303 44z"></path><path id="pcVBH0WvY" d="M31203 11440 c-272 -29 -475 -202 -549 -470 -13 -48 -18 -103 -18 -205 -1 -120 2 -151 22 -215 85 -271 280 -436 554 -471 89 -11 214 0 286 25 256 91 406 313 428 636 l7 100 -477 0 -477 0 7 53 c24 186 135 287 315 287 111 0 223 -54 269 -129 l25 -40 153 -1 c83 0 152 3 152 7 0 4 -20 49 -45 99 -116 239 -350 355 -652 324z m362 -852 c-39 -178 -135 -256 -304 -246 -137 8 -223 73 -261 197 -11 35 -20 67 -20 72 0 5 128 9 296 9 l296 0 -7 -32z"></path><path id="pbBMf51AM" d="M32542 11439 c-187 -24 -336 -135 -422 -313 -63 -132 -74 -188 -75 -371 0 -184 12 -242 75 -370 69 -141 170 -232 311 -282 61 -21 92 -26 174 -26 155 0 261 44 358 146 l47 51 0 -332 0 -332 175 0 175 0 0 900 0 900 -170 0 -170 0 0 -87 0 -86 -29 39 c-90 125 -262 188 -449 163z m267 -275 c163 -48 249 -292 195 -551 -39 -191 -143 -280 -314 -271 -141 8 -228 79 -272 221 -30 93 -32 281 -6 367 37 120 119 212 212 239 49 14 128 12 185 -5z"></path><path id="pWYdJPE82" d="M40247 11440 c-225 -27 -404 -151 -496 -342 -51 -108 -71 -201 -71 -336 0 -209 60 -362 194 -498 131 -131 271 -188 466 -187 187 0 308 48 430 172 127 128 187 273 197 479 l6 112 -473 0 -473 0 7 55 c14 124 74 217 164 257 63 28 183 35 254 14 66 -19 133 -67 167 -119 l24 -37 153 0 154 0 -11 27 c-53 141 -162 275 -268 332 -110 59 -282 87 -424 71z m367 -847 c-42 -175 -131 -253 -287 -253 -151 0 -270 98 -293 239 l-7 41 297 0 296 0 -6 -27z"></path><path id="pu5cs3MM3" d="M42815 11440 c-163 -17 -277 -71 -384 -179 -84 -84 -126 -155 -163 -271 -20 -65 -23 -95 -23 -230 1 -143 3 -161 28 -235 77 -219 241 -374 457 -431 88 -23 254 -23 340 0 217 59 369 219 436 461 18 62 35 233 27 263 l-5 22 -470 0 -471 0 7 49 c18 135 81 232 174 268 73 28 221 25 289 -6 49 -22 143 -108 143 -131 0 -6 54 -10 155 -10 l155 0 -21 53 c-105 271 -355 410 -674 377z m365 -829 c0 -5 -8 -36 -18 -68 -44 -140 -128 -203 -272 -203 -154 0 -269 95 -296 243 l-6 37 296 0 c171 0 296 -4 296 -9z"></path><path id="pwmbox0V5" d="M19280 11420 c-91 -8 -121 -16 -181 -46 -51 -25 -91 -67 -117 -123 -15 -32 -17 -87 -20 -473 l-3 -438 -109 0 -110 0 0 -115 0 -115 110 0 110 0 0 -195 0 -195 175 0 175 0 0 195 0 195 135 0 135 0 0 115 0 115 -136 0 -135 0 3 368 c4 460 -5 438 181 436 l87 -1 0 133 c0 131 -1 134 -22 138 -44 9 -204 12 -278 6z"></path><path id="p1EdZVZ7TY" d="M45555 11419 c-101 -9 -182 -40 -229 -85 -81 -78 -86 -115 -86 -601 l0 -393 -105 0 -105 0 0 -115 0 -115 105 0 105 0 0 -195 0 -195 180 0 180 0 0 195 0 195 130 0 130 0 0 115 0 115 -130 0 -130 0 0 359 c0 205 4 371 10 385 17 47 55 61 157 61 l93 -1 0 133 c0 130 -1 133 -22 137 -48 10 -206 13 -283 5z"></path><path id="pxu5rszLU" d="M5250 10760 l0 -650 180 0 180 0 0 650 0 650 -180 0 -180 0 0 -650z"></path><path id="pIzvbIEOw" d="M5840 10760 l0 -650 170 0 170 0 0 90 c0 50 3 90 8 90 4 -1 19 -19 34 -40 41 -59 139 -127 222 -152 54 -18 93 -23 167 -22 225 3 359 90 422 274 21 63 22 81 25 563 l3 497 -175 0 -176 0 0 -404 c0 -416 -5 -478 -41 -553 -39 -81 -150 -119 -270 -94 -101 22 -163 90 -188 209 -7 34 -11 197 -11 447 l0 395 -180 0 -180 0 0 -650z"></path><path id="pyQ1EO4wO" d="M13080 10760 l0 -650 165 0 165 0 0 90 c0 50 4 90 9 90 4 0 21 -18 36 -40 56 -81 180 -151 299 -170 156 -25 348 28 426 117 40 45 77 119 97 195 13 53 17 140 20 541 l5 477 -181 0 -180 0 -3 -442 -3 -443 -26 -56 c-15 -31 -40 -65 -56 -77 -67 -48 -201 -54 -282 -12 -51 26 -97 83 -118 145 -15 43 -18 110 -21 468 l-3 417 -175 0 -174 0 0 -650z"></path><path id="p11TQsPRBW" d="M17420 10760 l0 -650 165 0 165 0 0 90 c0 50 4 90 9 90 4 0 21 -18 36 -40 56 -81 180 -151 299 -170 156 -25 348 28 426 117 40 45 77 119 97 195 13 53 17 140 20 541 l5 477 -181 0 -181 0 0 -423 c0 -454 -3 -484 -52 -557 -37 -55 -89 -75 -188 -75 -99 1 -149 21 -198 80 -63 78 -66 97 -70 558 l-3 417 -175 0 -174 0 0 -650z"></path><path id="p1A9Bv8Tjz" d="M19710 10510 l0 -900 180 0 180 0 0 900 0 900 -180 0 -180 0 0 -900z"></path><path id="pypc5E7Mw" d="M23660 10760 l0 -650 170 0 170 0 0 123 0 122 29 -50 c83 -144 292 -255 427 -227 l39 8 3 163 3 162 -79 -6 c-133 -12 -234 18 -303 92 -94 98 -108 176 -109 596 l0 317 -175 0 -175 0 0 -650z"></path><path id="phzeUIAs3" d="M27430 10760 l0 -650 170 0 170 0 0 90 c0 50 4 90 8 90 5 0 15 -12 23 -26 7 -15 35 -46 62 -70 102 -92 245 -134 395 -116 199 24 309 106 365 272 21 63 22 81 25 563 l3 497 -175 0 -175 0 -3 -437 c-3 -386 -6 -443 -21 -483 -43 -112 -149 -160 -288 -131 -101 22 -163 90 -188 209 -7 34 -11 197 -11 447 l0 395 -180 0 -180 0 0 -650z"></path><path id="pSPL3eK2x" d="M28840 10760 l0 -650 175 0 175 0 0 650 0 650 -175 0 -175 0 0 -650z"></path><path id="pOiZdfYz7" d="M29350 11277 l0 -132 340 -382 c187 -211 340 -385 340 -388 0 -3 -142 -5 -315 -5 l-315 0 0 -130 0 -130 550 0 550 0 0 133 -1 132 -338 380 -339 380 364 3 364 2 0 135 0 135 -600 0 -600 0 0 -133z"></path><path id="pqDsSJU2k" d="M34670 10675 l0 -735 -270 0 -270 0 0 -165 0 -165 740 0 740 0 0 165 0 165 -270 0 -270 0 0 735 0 735 -200 0 -200 0 0 -735z"></path><path id="pQjLUHcVp" d="M35770 10510 l0 -900 670 0 670 0 0 165 0 165 -475 0 -475 0 0 195 0 195 435 0 435 0 0 150 0 150 -435 0 -435 0 0 225 0 225 485 0 485 0 0 165 0 165 -680 0 -680 0 0 -900z"></path><path id="p19DSNZNmg" d="M37300 10510 l0 -901 468 3 c445 4 471 5 547 26 304 84 498 305 560 637 17 90 22 311 10 400 -33 231 -122 416 -261 543 -77 72 -168 121 -289 158 l-90 28 -472 4 -473 3 0 -901z m876 556 c148 -39 247 -140 301 -305 24 -74 29 -329 8 -432 -32 -162 -115 -283 -229 -335 -91 -42 -174 -54 -373 -54 l-183 0 0 570 0 570 213 0 c147 0 228 -4 263 -14z"></path><path id="pCgLVKjAD" d="M41397 11368 c-68 -198 -427 -1249 -427 -1253 0 -3 82 -5 183 -5 l183 0 107 348 c59 191 121 391 138 446 17 54 34 94 38 90 5 -5 68 -206 142 -446 l134 -438 173 0 c94 0 172 3 172 8 0 4 -98 296 -217 650 l-218 642 -196 0 -197 0 -15 -42z"></path><path id="pNMbExQdG" d="M43700 10760 l0 -650 170 0 170 0 0 91 0 92 61 -67 c109 -119 260 -170 436 -146 47 6 109 20 138 31 74 28 147 96 185 173 54 109 59 171 60 674 l0 452 -174 0 -175 0 -3 -427 c-5 -483 -7 -505 -77 -574 -46 -46 -104 -63 -190 -55 -88 8 -148 39 -188 98 -52 79 -55 108 -60 551 l-5 407 -174 0 -174 0 0 -650z"></path><path id="pXzMfc5Lg" d="M3360 11045 l0 -135 635 0 635 0 0 135 0 135 -635 0 -635 0 0 -135z"></path><path id="p1C0u0imwO" d="M3360 10505 l0 -135 635 0 635 0 0 135 0 135 -635 0 -635 0 0 -135z"></path><path id="pieY4d0l7" d="M5250 9755 l0 -145 180 0 180 0 0 145 0 145 -180 0 -180 0 0 -145z"></path><path id="p1CdlqEa0T" d="M28840 9755 l0 -145 175 0 175 0 0 145 0 145 -175 0 -175 0 0 -145z"></path><path id="pdCOqSk3i" d="M36790 8250 c-707 -55 -1248 -427 -1545 -1063 -213 -455 -284 -1079 -194 -1705 139 -969 721 -1653 1549 -1821 156 -32 275 -42 470 -42 523 0 941 150 1325 473 359 303 574 730 650 1293 22 161 30 552 16 735 -42 532 -183 971 -430 1341 -147 219 -278 354 -466 480 -234 157 -548 264 -875 298 -144 15 -382 20 -500 11z m564 -650 c336 -71 562 -254 710 -571 178 -384 257 -800 243 -1283 -16 -548 -144 -927 -401 -1182 -178 -176 -388 -271 -677 -305 -122 -14 -358 -6 -465 15 -343 69 -581 256 -753 590 -134 261 -213 557 -240 895 -53 668 114 1263 442 1578 165 158 358 246 622 282 116 16 404 5 519 -19z"></path><path id="pukGBWiVX" d="M45489 8225 c-563 -88 -985 -479 -1090 -1010 -9 -46 -14 -141 -14 -275 0 -178 3 -219 23 -310 86 -383 294 -638 681 -832 124 -63 303 -125 451 -156 52 -12 400 -59 772 -106 485 -62 693 -92 731 -106 134 -50 212 -139 243 -277 25 -114 16 -342 -19 -441 -102 -293 -397 -442 -907 -459 -527 -17 -857 135 -991 457 -32 76 -73 228 -84 313 l-6 47 -341 0 -341 0 7 -92 c36 -480 199 -813 498 -1011 226 -150 496 -252 803 -304 157 -26 667 -26 835 0 264 41 458 97 647 187 333 158 520 380 599 711 17 69 18 178 23 1479 l6 1405 27 55 c32 66 66 88 151 100 56 8 245 -2 290 -16 16 -5 17 12 17 264 l0 269 -77 21 c-163 43 -195 47 -393 47 -185 -1 -199 -2 -277 -28 -228 -76 -356 -245 -418 -552 -9 -44 -17 -80 -18 -82 -2 -1 -25 25 -52 59 -93 112 -267 256 -435 358 -251 153 -517 248 -798 285 -139 18 -424 18 -543 0z m566 -606 c147 -12 276 -40 409 -86 433 -150 693 -403 788 -765 20 -77 22 -112 25 -486 l4 -403 -69 35 c-202 104 -397 150 -911 216 -466 60 -623 96 -786 177 -195 97 -320 256 -361 458 -23 112 -15 305 16 395 92 271 380 454 735 469 17 0 84 -4 150 -10z"></path><path id="pQGxEBsll" d="M31555 8161 c-149 -15 -279 -52 -381 -108 -164 -90 -295 -331 -333 -616 -7 -53 -11 -577 -11 -1593 l0 -1514 -295 0 -295 0 0 -295 0 -295 295 0 295 0 0 -610 0 -610 365 0 365 0 0 610 0 610 350 0 350 0 0 295 0 295 -350 0 -350 0 0 1442 c0 999 3 1461 11 1504 14 78 61 159 114 196 73 50 146 62 373 61 l202 -1 0 283 0 283 -87 21 c-49 11 -124 24 -168 30 -118 14 -358 21 -450 12z"></path><path id="p05TT8oIj" d="M33875 8161 c-149 -15 -279 -52 -381 -108 -164 -90 -295 -331 -333 -616 -7 -53 -11 -577 -11 -1593 l0 -1514 -295 0 -295 0 0 -295 0 -295 295 0 295 0 0 -610 0 -610 365 0 365 0 0 610 0 610 350 0 350 0 0 295 0 295 -350 0 -350 0 0 1442 c0 999 3 1461 11 1504 14 78 61 159 114 196 73 50 146 62 373 61 l202 -1 0 283 0 283 -87 21 c-49 11 -124 24 -168 30 -118 14 -358 21 -450 12z"></path><path id="pQcuYztWi" d="M24180 5123 c-596 -1638 -1086 -2984 -1088 -2990 -3 -10 89 -13 439 -13 l444 0 854 2533 c470 1392 857 2539 862 2547 7 13 8 13 13 0 4 -8 386 -1153 849 -2545 l844 -2530 451 -3 452 -2 -19 47 c-10 27 -501 1372 -1091 2991 l-1074 2942 -426 0 -426 0 -1084 -2977z"></path><path id="pRDFKJhWO" d="M28830 5930 l0 -2170 370 0 370 0 0 2170 0 2170 -370 0 -370 0 0 -2170z"></path><path id="pmgnc5dbm" d="M39970 5920 l0 -2180 345 0 345 0 0 377 0 378 45 -79 c24 -43 70 -113 101 -154 73 -96 267 -297 362 -373 233 -187 491 -265 795 -237 l127 11 0 384 0 384 -52 -8 c-81 -12 -344 -8 -428 6 -154 27 -302 85 -425 166 -167 111 -342 351 -418 575 -65 191 -61 89 -64 1578 l-3 1352 -365 0 -365 0 0 -2180z"></path><path id="pOHaKFViG" d="M42730 5930 l0 -2170 370 0 370 0 0 2170 0 2170 -370 0 -370 0 0 -2170z"></path><path id="pF25mhY27" d="M28830 2535 l0 -415 370 0 370 0 0 415 0 415 -370 0 -370 0 0 -415z"></path><path id="ppfR8ZBwa" d="M42730 2535 l0 -415 370 0 370 0 0 415 0 415 -370 0 -370 0 0 -415z"></path></g></g><g id="l4kHektmConGdZMehfq0m61" fill="rgb(255,43,6)" style="transform: none;"><g style="transform: none;"><path id="pkcdcqbmE" d="M1664 11288 c46 -68 152 -222 234 -343 l150 -219 -76 -111 c-42 -60 -138 -199 -214 -307 l-137 -198 202 0 202 0 109 166 c60 91 113 167 116 169 4 3 58 -72 120 -165 l113 -170 195 0 c154 0 192 3 185 13 -6 6 -101 142 -212 300 -120 171 -200 294 -197 303 3 8 102 153 219 322 118 169 222 319 232 335 l17 27 -200 0 -200 0 -133 -205 c-74 -113 -136 -205 -139 -205 -3 0 -66 93 -140 205 l-135 205 -198 0 -197 0 84 -122z"></path><path id="p4APwdZRm" d="M3130 5875 l0 -2235 -845 0 -845 0 0 -770 0 -770 2610 0 2610 0 0 770 0 770 -845 0 -845 0 0 2235 0 2235 -920 0 -920 0 0 -2235z"></path><path id="p23A8XwSC" d="M6950 5105 l0 -3005 2530 0 2530 0 0 770 0 770 -1610 0 -1610 0 0 375 0 375 1610 0 1610 0 0 715 0 715 -1610 0 -1610 0 0 375 0 375 1610 0 1610 0 0 770 0 770 -2530 0 -2530 0 0 -3005z"></path><path id="p2VHHDrz2" d="M12320 5105 l0 -3006 1653 4 c1715 4 1703 4 1962 48 818 138 1415 572 1774 1289 236 472 351 1016 351 1660 0 954 -258 1697 -770 2211 -422 425 -1000 678 -1745 764 -244 28 -586 34 -1922 35 l-1303 0 0 -3005z m2811 1451 c560 -75 906 -402 1032 -977 40 -178 51 -288 50 -499 0 -306 -46 -521 -159 -748 -75 -152 -134 -231 -252 -343 -179 -169 -384 -265 -692 -325 -68 -13 -171 -17 -512 -21 l-428 -5 0 1466 0 1466 428 0 c309 0 456 -4 533 -14z"></path><path id="p18lgsOGzg" d="M18373 5623 c801 -1174 1167 -1719 1162 -1731 -3 -7 -276 -410 -608 -895 -332 -485 -607 -888 -611 -894 -6 -10 130 -13 666 -13 l673 0 249 445 c137 245 252 445 256 445 3 0 121 -199 262 -442 l255 -443 672 -3 c369 -1 671 0 671 4 0 3 -277 410 -615 905 l-616 899 634 933 c348 512 637 938 641 945 6 9 -130 12 -666 12 l-673 -1 -280 -464 c-154 -256 -282 -465 -285 -465 -3 0 -129 209 -279 465 l-274 465 -674 0 -674 0 114 -167z"></path></g></g></svg>